<svg version="1.2" xmlns="http://www.w3.org/2000/svg" viewBox="0 0 231 48" width="231" height="48"><style>tspan{white-space:pre}.a{fill:#465fff}.b{fill:#fff}.c{opacity:.9;fill:#fff}.d{opacity:.7;fill:#fff}.e{font-size: 22px;fill: #f2f6f6;font-weight: 400;font-family: "DelaGothicOne-Regular", "Dela Gothic One"}</style><path class="a" d="m0.4 12.6c0-6.9 5.7-12.6 12.7-12.6h22.7c7 0 12.6 5.7 12.6 12.6v22.8c0 6.9-5.6 12.6-12.6 12.6h-22.7c-7 0-12.7-5.7-12.7-12.6z"/><path class="b" d="m13.1 12.6c0-1.4 1.1-2.5 2.5-2.5 1.4 0 2.5 1.1 2.5 2.5v22.8c0 1.4-1.1 2.5-2.5 2.5-1.4 0-2.5-1.1-2.5-2.5z"/><path class="c" d="m22.5 22.7c0-1.4 1.2-2.5 2.6-2.5 1.4 0 2.5 1.1 2.5 2.5v12.7c0 1.4-1.1 2.5-2.5 2.5-1.4 0-2.6-1.1-2.6-2.5z"/><path class="d" d="m32 16.4c0-1.4 1.1-2.5 2.5-2.5 1.4 0 2.6 1.1 2.6 2.5v19c0 1.4-1.2 2.5-2.6 2.5-1.4 0-2.5-1.1-2.5-2.5z"/><text style="transform:matrix(1.024,0,0,1.435,138,34.391)" ><tspan x="-84.1" y="0" class="e">B</tspan><tspan  y="0" class="e">I</tspan><tspan  y="0" class="e">S</tspan><tspan  y="0" class="e">A</tspan><tspan  y="0" class="e"> </tspan><tspan  y="0" class="e">T</tspan><tspan  y="0" class="e">r</tspan><tspan  y="0" class="e">y</tspan><tspan  y="0" class="e">o</tspan><tspan  y="0" class="e">u</tspan><tspan  y="0" class="e">t</tspan><tspan  y="0" class="e">
</tspan></text></svg>