<svg version="1.2" xmlns="http://www.w3.org/2000/svg" viewBox="0 0 154 32" width="154" height="32"><style>tspan{white-space:pre}.a{mix-blend-mode:color;fill:#465fff}.b{fill:#fff}.c{opacity:.9;fill:#fff}.d{opacity:.7;fill:#fff}.e{font-size: 25px;fill: #054a4a;font-weight: 700;font-family: "Alexandria-Bold", "Alexandria"}</style><path class="a" d="m0 8.4c0-4.6 3.8-8.4 8.4-8.4h15.2c4.6 0 8.4 3.8 8.4 8.4v15.2c0 4.6-3.8 8.4-8.4 8.4h-15.2c-4.6 0-8.4-3.8-8.4-8.4z"/><path class="b" d="m8.4 8.4c0-0.9 0.8-1.7 1.7-1.7 0.9 0 1.7 0.8 1.7 1.7v15.2c0 0.9-0.8 1.7-1.7 1.7-0.9 0-1.7-0.8-1.7-1.7z"/><path class="c" d="m14.7 15.2c0-1 0.8-1.7 1.7-1.7 1 0 1.7 0.7 1.7 1.7v8.4c0 0.9-0.7 1.7-1.7 1.7-0.9 0-1.7-0.8-1.7-1.7z"/><path class="d" d="m21.1 10.9c0-0.9 0.7-1.6 1.6-1.6 1 0 1.7 0.7 1.7 1.6v12.7c0 0.9-0.7 1.7-1.7 1.7-0.9 0-1.6-0.8-1.6-1.7z"/><text style="transform:matrix(.814,0,0,1.261,93.686,26.696)" ><tspan x="-74.7" y="0" class="e">BISA Tryout
</tspan></text><text style="transform:matrix(1,0,0,1,67,-10)" ></text></svg>